<svg width="48" height="117" viewBox="0 0 48 117" fill="none" xmlns="http://www.w3.org/2000/svg">
<g clip-path="url(#clip0_2_74)">
<path d="M30.208 31.552C30.208 29.76 29.568 28.2667 28.288 27.072C27.008 25.792 25.5147 25.152 23.808 25.152C22.1013 25.152 20.608 25.792 19.328 27.072C18.048 28.2667 17.408 29.76 17.408 31.552V44.864C17.408 46.656 18.048 48.192 19.328 49.472C20.608 50.6667 22.1013 51.264 23.808 51.264C25.5147 51.264 27.008 50.6667 28.288 49.472C29.568 48.192 30.208 46.656 30.208 44.864V31.552ZM4.352 36.672C4.352 34.1973 4.43733 32.1067 4.608 30.4C4.77867 28.608 5.07733 27.072 5.504 25.792C5.93067 24.512 6.4 23.36 6.912 22.336C7.50933 21.312 8.23467 20.2453 9.088 19.136C10.7947 16.9173 12.928 15.2107 15.488 14.016C18.048 12.736 20.8213 12.096 23.808 12.096C26.7947 12.096 29.568 12.736 32.128 14.016C34.688 15.2107 36.8213 16.9173 38.528 19.136C39.3813 20.2453 40.1067 21.312 40.704 22.336C41.3013 23.36 41.8133 24.512 42.24 25.792C42.6667 27.072 42.9227 28.608 43.008 30.4C43.1787 32.1067 43.264 34.1973 43.264 36.672C43.264 39.4027 43.2213 41.7067 43.136 43.584C43.0507 45.4613 42.7947 47.1253 42.368 48.576C41.9413 50.0267 41.2587 51.3493 40.32 52.544C39.4667 53.6533 38.272 54.848 36.736 56.128C38.272 57.3227 39.4667 58.5173 40.32 59.712C41.2587 60.9067 41.9413 62.3147 42.368 63.936C42.7947 65.5573 43.0507 67.5627 43.136 69.952C43.2213 72.256 43.264 75.1147 43.264 78.528C43.264 81.344 43.1787 83.6907 43.008 85.568C42.9227 87.36 42.752 88.9387 42.496 90.304C42.24 91.6693 41.856 92.8213 41.344 93.76C40.9173 94.6987 40.3627 95.68 39.68 96.704C38.2293 98.9227 36.1813 100.843 33.536 102.464C30.8907 104 27.648 104.768 23.808 104.768C19.968 104.768 16.7253 104 14.08 102.464C11.4347 100.843 9.38667 98.9227 7.936 96.704C7.25333 95.68 6.656 94.6987 6.144 93.76C5.71733 92.8213 5.376 91.6693 5.12 90.304C4.864 88.9387 4.65067 87.36 4.48 85.568C4.39467 83.6907 4.352 81.344 4.352 78.528C4.352 75.1147 4.39467 72.256 4.48 69.952C4.56533 67.5627 4.82133 65.5573 5.248 63.936C5.67467 62.3147 6.31467 60.9067 7.168 59.712C8.10667 58.5173 9.344 57.3227 10.88 56.128C9.344 54.848 8.10667 53.6533 7.168 52.544C6.31467 51.3493 5.67467 50.0267 5.248 48.576C4.82133 47.1253 4.56533 45.4613 4.48 43.584C4.39467 41.7067 4.352 39.4027 4.352 36.672ZM30.208 67.392C30.208 65.6 29.568 64.1067 28.288 62.912C27.008 61.632 25.5147 60.992 23.808 60.992C22.1013 60.992 20.608 61.632 19.328 62.912C18.048 64.1067 17.408 65.6 17.408 67.392V85.312C17.408 87.104 18.048 88.64 19.328 89.92C20.608 91.1147 22.1013 91.712 23.808 91.712C25.5147 91.712 27.008 91.1147 28.288 89.92C29.568 88.64 30.208 87.104 30.208 85.312V67.392Z" fill="white"/>
</g>
<defs>
<clipPath id="clip0_2_74">
<rect width="48" height="117" fill="white"/>
</clipPath>
</defs>
</svg>
