<svg width="48" height="117" viewBox="0 0 48 117" fill="none" xmlns="http://www.w3.org/2000/svg">
<g clip-path="url(#clip0_2_70)">
<path d="M38.528 12.864L23.68 51.136L23.936 51.392C24.3627 51.0507 25.0027 50.7947 25.856 50.624C26.7947 50.368 27.9893 50.24 29.44 50.24C31.744 50.24 33.8773 50.7947 35.84 51.904C37.8027 53.0133 39.3387 54.4213 40.448 56.128C41.0453 57.0667 41.5147 58.0053 41.856 58.944C42.1973 59.8827 42.496 61.12 42.752 62.656C42.9227 64.192 43.0507 66.1547 43.136 68.544C43.2213 70.848 43.264 73.792 43.264 77.376C43.264 80.3627 43.2213 82.8373 43.136 84.8C43.0507 86.6773 42.9227 88.256 42.752 89.536C42.496 90.9013 42.1547 92.0533 41.728 92.992C41.3867 93.9307 40.9173 94.912 40.32 95.936C38.6133 98.752 36.3093 100.928 33.408 102.464C30.592 104 27.392 104.768 23.808 104.768C20.224 104.768 17.024 104 14.208 102.464C11.392 100.843 9.13067 98.6667 7.424 95.936C6.74133 94.912 6.18667 93.9307 5.76 92.992C5.41867 92.0533 5.16267 90.9013 4.992 89.536C4.736 88.256 4.56533 86.6773 4.48 84.8C4.39467 82.8373 4.352 80.3627 4.352 77.376C4.352 74.56 4.39467 72.256 4.48 70.464C4.56533 68.5867 4.69333 66.9653 4.864 65.6C5.03467 64.32 5.29067 63.168 5.632 62.144C5.97333 61.0347 6.35733 59.8827 6.784 58.688L23.936 12.864H38.528ZM30.208 68.288C30.208 66.3253 29.568 64.7467 28.288 63.552C27.008 62.3573 25.5147 61.76 23.808 61.76C22.1013 61.76 20.608 62.3573 19.328 63.552C18.048 64.7467 17.408 66.3253 17.408 68.288V85.184C17.408 87.1467 18.048 88.7253 19.328 89.92C20.608 91.1147 22.1013 91.712 23.808 91.712C25.5147 91.712 27.008 91.1147 28.288 89.92C29.568 88.7253 30.208 87.1467 30.208 85.184V68.288Z" fill="white"/>
</g>
<defs>
<clipPath id="clip0_2_70">
<rect width="48" height="117" fill="white"/>
</clipPath>
</defs>
</svg>
