<svg width="48" height="117" viewBox="0 0 48 117" fill="none" xmlns="http://www.w3.org/2000/svg">
<g clip-path="url(#clip0_2_64)">
<path d="M19.84 51.264C23.7653 51.264 26.4533 50.7947 27.904 49.856C29.44 48.9173 30.208 46.7413 30.208 43.328V31.552C30.208 29.6747 29.6107 28.1387 28.416 26.944C27.3067 25.7493 25.7707 25.152 23.808 25.152C21.504 25.152 19.84 25.8773 18.816 27.328C17.8773 28.7787 17.408 30.1867 17.408 31.552V38.976H4.352V31.424C4.352 28.7787 4.864 26.2613 5.888 23.872C6.912 21.4827 8.32 19.4347 10.112 17.728C11.904 16.0213 13.9947 14.656 16.384 13.632C18.7733 12.608 21.3333 12.096 24.064 12.096C27.648 12.096 30.592 12.8213 32.896 14.272C35.2853 15.6373 37.0773 17.0453 38.272 18.496C39.1253 19.52 39.8507 20.544 40.448 21.568C41.1307 22.592 41.6853 23.8293 42.112 25.28C42.88 28.096 43.264 32.2773 43.264 37.824C43.264 40.9813 43.1787 43.5413 43.008 45.504C42.9227 47.4667 42.624 49.088 42.112 50.368C41.5147 51.7333 40.6613 52.8853 39.552 53.824C38.528 54.7627 37.0773 55.7867 35.2 56.896C37.248 58.176 38.784 59.3707 39.808 60.48C40.9173 61.5893 41.728 62.8693 42.24 64.32C42.752 65.856 43.0507 67.6907 43.136 69.824C43.2213 71.872 43.264 74.5173 43.264 77.76C43.264 80.7467 43.1787 83.2213 43.008 85.184C42.9227 87.1467 42.752 88.768 42.496 90.048C42.24 91.4133 41.8987 92.5653 41.472 93.504C41.0453 94.4427 40.4907 95.424 39.808 96.448C38.1867 98.8373 36.096 100.843 33.536 102.464C31.0613 104 27.776 104.768 23.68 104.768C21.632 104.768 19.456 104.427 17.152 103.744C14.848 103.061 12.7573 101.952 10.88 100.416C9.00267 98.88 7.424 96.8747 6.144 94.4C4.94933 91.9253 4.352 88.896 4.352 85.312V77.888H17.408V84.672C17.408 86.72 17.9627 88.4267 19.072 89.792C20.2667 91.072 21.8453 91.712 23.808 91.712C25.7707 91.712 27.3067 91.072 28.416 89.792C29.6107 88.4267 30.208 86.6347 30.208 84.416V71.36C30.208 67.776 29.5253 65.4293 28.16 64.32C27.392 63.6373 26.3253 63.2107 24.96 63.04C23.68 62.8693 21.9733 62.784 19.84 62.784V51.264Z" fill="#191919"/>
</g>
<defs>
<clipPath id="clip0_2_64">
<rect width="48" height="117" fill="white"/>
</clipPath>
</defs>
</svg>
