<svg width="48" height="117" viewBox="0 0 48 117" fill="none" xmlns="http://www.w3.org/2000/svg">
<g clip-path="url(#clip0_2_61)">
<path d="M4.352 104V91.712L27.904 47.296C29.0987 45.0773 29.7813 43.1573 29.952 41.536C30.1227 39.8293 30.208 37.7387 30.208 35.264C30.208 34.1547 30.1653 33.0027 30.08 31.808C30.08 30.528 29.8667 29.4187 29.44 28.48C29.0133 27.5413 28.3733 26.7733 27.52 26.176C26.6667 25.4933 25.4293 25.152 23.808 25.152C21.8453 25.152 20.2667 25.7067 19.072 26.816C17.9627 27.9253 17.408 29.5467 17.408 31.68V39.104H4.352V31.936C4.352 29.2053 4.864 26.6453 5.888 24.256C6.912 21.8667 8.32 19.776 10.112 17.984C11.8187 16.192 13.8667 14.784 16.256 13.76C18.6453 12.6507 21.2053 12.096 23.936 12.096C27.3493 12.096 30.2507 12.736 32.64 14.016C35.1147 15.2107 37.1627 16.8747 38.784 19.008C40.32 21.1413 41.4293 23.5733 42.112 26.304C42.88 29.0347 43.264 31.936 43.264 35.008C43.264 37.2267 43.2213 39.104 43.136 40.64C43.0507 42.0907 42.88 43.4987 42.624 44.864C42.368 46.2293 41.9413 47.5947 41.344 48.96C40.7467 50.3253 39.936 51.9893 38.912 53.952L19.712 90.944H43.264V104H4.352Z" fill="#191919"/>
</g>
<defs>
<clipPath id="clip0_2_61">
<rect width="48" height="117" fill="white"/>
</clipPath>
</defs>
</svg>
