<svg width="48" height="117" viewBox="0 0 48 117" fill="none" xmlns="http://www.w3.org/2000/svg">
<g clip-path="url(#clip0_2_76)">
<path opacity="0.9" d="M9.088 104L23.936 65.728L23.68 65.472C23.2533 65.8133 22.5707 66.112 21.632 66.368C20.7787 66.5387 19.6267 66.624 18.176 66.624C15.872 66.624 13.7387 66.0693 11.776 64.96C9.81333 63.8507 8.27733 62.4427 7.168 60.736C6.57067 59.8827 6.10133 58.9867 5.76 58.048C5.41867 57.024 5.16267 55.744 4.992 54.208C4.736 52.672 4.56533 50.752 4.48 48.448C4.39467 46.0587 4.352 43.072 4.352 39.488C4.352 36.5013 4.39467 34.0693 4.48 32.192C4.56533 30.2293 4.736 28.5653 4.992 27.2C5.16267 25.92 5.41867 24.8107 5.76 23.872C6.18667 22.9333 6.69867 21.952 7.296 20.928C9.00267 18.112 11.264 15.936 14.08 14.4C16.9813 12.864 20.224 12.096 23.808 12.096C27.392 12.096 30.592 12.9067 33.408 14.528C36.224 16.064 38.4853 18.1973 40.192 20.928C40.7893 21.952 41.3013 22.9333 41.728 23.872C42.1547 24.8107 42.496 25.92 42.752 27.2C42.9227 28.5653 43.0507 30.2293 43.136 32.192C43.2213 34.0693 43.264 36.5013 43.264 39.488C43.264 42.304 43.2213 44.6507 43.136 46.528C43.0507 48.32 42.9227 49.856 42.752 51.136C42.496 52.5013 42.1973 53.7387 41.856 54.848C41.6 55.872 41.2587 56.9813 40.832 58.176L23.68 104H9.088ZM17.408 48.576C17.408 50.5387 18.048 52.1173 19.328 53.312C20.608 54.5067 22.1013 55.104 23.808 55.104C25.5147 55.104 27.008 54.5067 28.288 53.312C29.568 52.1173 30.208 50.5387 30.208 48.576V31.68C30.208 29.7173 29.568 28.1387 28.288 26.944C27.008 25.7493 25.5147 25.152 23.808 25.152C22.1013 25.152 20.608 25.7493 19.328 26.944C18.048 28.1387 17.408 29.7173 17.408 31.68V48.576Z" fill="white"/>
</g>
<defs>
<clipPath id="clip0_2_76">
<rect width="48" height="117" fill="white"/>
</clipPath>
</defs>
</svg>
