<svg width="48" height="117" viewBox="0 0 48 117" fill="none" xmlns="http://www.w3.org/2000/svg">
<g clip-path="url(#clip0_2_78)">
<path opacity="0.9" d="M4.352 31.68C4.352 28.608 4.864 25.8773 5.888 23.488C6.99733 21.0987 8.448 19.0507 10.24 17.344C12.032 15.6373 14.08 14.3573 16.384 13.504C18.7733 12.5653 21.248 12.096 23.808 12.096C26.368 12.096 28.8 12.5653 31.104 13.504C33.4933 14.3573 35.584 15.6373 37.376 17.344C39.168 19.0507 40.576 21.0987 41.6 23.488C42.7093 25.8773 43.264 28.608 43.264 31.68V85.184C43.264 88.256 42.7093 90.9867 41.6 93.376C40.576 95.7653 39.168 97.8133 37.376 99.52C35.584 101.227 33.4933 102.549 31.104 103.488C28.8 104.341 26.368 104.768 23.808 104.768C21.248 104.768 18.7733 104.341 16.384 103.488C14.08 102.549 12.032 101.227 10.24 99.52C8.448 97.8133 6.99733 95.7653 5.888 93.376C4.864 90.9867 4.352 88.256 4.352 85.184V31.68ZM17.408 85.184C17.408 87.0613 18.0053 88.64 19.2 89.92C20.3947 91.1147 21.9307 91.712 23.808 91.712C25.6853 91.712 27.2213 91.1147 28.416 89.92C29.6107 88.64 30.208 87.0613 30.208 85.184V31.68C30.208 29.8027 29.6107 28.2667 28.416 27.072C27.2213 25.792 25.6853 25.152 23.808 25.152C21.9307 25.152 20.3947 25.792 19.2 27.072C18.0053 28.2667 17.408 29.8027 17.408 31.68V85.184Z" fill="#191919"/>
</g>
<defs>
<clipPath id="clip0_2_78">
<rect width="48" height="117" fill="white"/>
</clipPath>
</defs>
</svg>
