<svg width="48" height="117" viewBox="0 0 48 117" fill="none" xmlns="http://www.w3.org/2000/svg">
<g clip-path="url(#clip0_2_68)">
<path d="M43.264 12.864V25.152H17.408V49.728C18.6027 48.5333 20.1387 47.552 22.016 46.784C23.8933 45.9307 25.984 45.504 28.288 45.504C32.7253 45.504 36.3093 46.8693 39.04 49.6C41.856 52.2453 43.264 56.256 43.264 61.632V85.184C43.264 88.256 42.7093 90.9867 41.6 93.376C40.576 95.7653 39.168 97.8133 37.376 99.52C35.584 101.227 33.4933 102.549 31.104 103.488C28.8 104.341 26.368 104.768 23.808 104.768C21.248 104.768 18.7733 104.341 16.384 103.488C14.08 102.549 12.032 101.227 10.24 99.52C8.448 97.8133 6.99733 95.7653 5.888 93.376C4.864 90.9867 4.352 88.256 4.352 85.184V81.344H17.408V84.672C17.408 86.8907 18.0053 88.64 19.2 89.92C20.48 91.1147 22.1013 91.712 24.064 91.712C26.0267 91.712 27.52 91.1147 28.544 89.92C29.6533 88.7253 30.208 87.0613 30.208 84.928V63.552C30.208 61.76 29.6107 60.224 28.416 58.944C27.3067 57.664 25.856 57.024 24.064 57.024C22.9547 57.024 22.016 57.2373 21.248 57.664C20.48 58.0053 19.84 58.432 19.328 58.944C18.816 59.456 18.432 60.0107 18.176 60.608C17.7493 61.376 17.4933 61.8453 17.408 62.016H5.888V12.864H43.264Z" fill="#191919"/>
</g>
<defs>
<clipPath id="clip0_2_68">
<rect width="48" height="117" fill="white"/>
</clipPath>
</defs>
</svg>
